<svg id="hegahfec" xmlns="http://www.w3.org/2000/svg" viewBox="0 0 332.97 237">
  <defs>
    <style>
      .cls-1 {
        fill: #111;
      }
    </style>
  </defs>
  <title>logo-white</title>
  <g id="SvgjsG4328">
    <polygon class="cls-1" points="140.29 7.3 143.5 9.06 145.25 12.27 147.01 9.06 150.21 7.3 147.01 5.55 145.25 2.34 143.5 5.55 140.29 7.3"/>
    <polygon class="cls-1" points="181.68 23.81 178.47 25.57 181.68 27.32 183.44 30.53 185.19 27.32 188.4 25.57 185.19 23.81 183.44 20.61 181.68 23.81"/>
    <polygon class="cls-1" points="116.7 68.05 118.45 64.84 121.66 63.09 118.45 61.33 116.7 58.13 114.94 61.33 111.73 63.09 114.94 64.84 116.7 68.05"/>
    <polygon class="cls-1" points="208.07 5.46 204.86 7.21 208.07 8.96 209.82 12.17 211.58 8.96 214.78 7.21 211.58 5.46 209.82 2.25 208.07 5.46"/>
    <path class="cls-1" d="M233.27,117.88a2,2,0,1,0,.48-3.95h0c-23.41-2.83-33.6,16-36.26,22.14-34.25-10.81-51.05,10-51.21,10.21a2,2,0,0,0,3.13,2.46c.63-.8,15.9-19.48,48.56-8.32a35.76,35.76,0,0,0,12.22,1.91,48.56,48.56,0,0,0,8.75-.83,2,2,0,0,0-.73-3.92h0a39.57,39.57,0,0,1-16.92-.31C203.75,131.58,212.64,115.39,233.27,117.88Z" transform="translate(-5 -22)"/>
    <path class="cls-1" d="M235,80.1a64.34,64.34,0,0,0-57.84-19.3l3.68,3.49a59.85,59.85,0,0,1,31.87,4.81l-2.28,3.32a2,2,0,1,0,3.28,2.25l2.62-3.81a60,60,0,0,1,15.77,12A2,2,0,0,0,235,80.1Z" transform="translate(-5 -22)"/>
    <path class="cls-1" d="M133.9,118.62a2,2,0,0,0,0-4h-5.3a59.15,59.15,0,0,1,13-29l-2.09-2.19a5.83,5.83,0,0,1-.61-.78A63.24,63.24,0,0,0,129,148.29a2,2,0,1,0,3.67-1.55h0a59,59,0,0,1-4.72-23.22c0-1.65.08-3.28.21-4.89Z" transform="translate(-5 -22)"/>
    <path class="cls-1" d="M144.52,114.31a2,2,0,1,0,0,4h26.57a10.47,10.47,0,0,1-.25-4Z" transform="translate(-5 -22)"/>
    <path class="cls-1" d="M190.28,108.82l17-24.68A2,2,0,1,0,204,81.88h0l-16.73,24.31A11,11,0,0,1,190.28,108.82Z" transform="translate(-5 -22)"/>
    <path class="cls-1" d="M181.71,122.61a7,7,0,1,0-7-7h0A7,7,0,0,0,181.71,122.61Zm0-10a3,3,0,1,1-3,3A3,3,0,0,1,181.71,112.65Z" transform="translate(-5 -22)"/>
    <path class="cls-1" d="M176.34,101.69a2,2,0,0,0,1.41-3.4l-8.58-8.58a2,2,0,0,0-2.81,2.82l8.57,8.57A2,2,0,0,0,176.34,101.69Z" transform="translate(-5 -22)"/>
    <path class="cls-1" d="M178.53,80.36a2,2,0,0,0-2.82,2.81l8.58,8.58a2,2,0,0,0,2.81-2.82Z" transform="translate(-5 -22)"/>
    <path class="cls-1" d="M185.7,101.69a2,2,0,0,0,2-2,2,2,0,0,0-.59-1.41l-7.79-7.8a2,2,0,0,0-2.82,2.82l7.8,7.79A2,2,0,0,0,185.7,101.69Z" transform="translate(-5 -22)"/>
    <path class="cls-1" d="M128.72,30.06l-17.93-7.89a2,2,0,0,0-2.62,1,1.94,1.94,0,0,0,0,1.6l7.89,17.93a1.93,1.93,0,0,0,1,1l26.71,26.71-1.9,8.45a2,2,0,0,0,.49,1.81l13.64,14.37a2,2,0,0,0,2.82.07,2,2,0,0,0,.58-1.06l1.66-8.55a7.45,7.45,0,0,0,10.37-10.43l8.62-1.67a2,2,0,0,0,1.58-2.33,2,2,0,0,0-.59-1.07L166.72,56.41a2,2,0,0,0-1.81-.49l-8.45,1.9L129.75,31.11A1.93,1.93,0,0,0,128.72,30.06Zm-14.84-2.18,10.57,4.65-5.92,5.92Zm42.4,61.66L146,78.75l1.11-5L157.35,84ZM165.44,83a3.42,3.42,0,0,1-1.53-.37L168.56,78a3.42,3.42,0,0,1,.37,1.53A3.49,3.49,0,0,1,165.44,83ZM164.75,60l10.79,10.24L170,71.35l-10.2-10.2Zm2.19,13.9-7,7L120.81,41.81l7-7Z" transform="translate(-5 -22)"/>
  </g>
  <g id="SvgjsG4329">
    <path class="cls-1" d="M108.18,195.66l-.07-4.77V178.58a28,28,0,0,1,5.19-.39,27,27,0,0,1,5.13.39v44a34.33,34.33,0,0,1-10.32,0V209l.07-4.78-3.23.07H97.47l-3.22-.07.07,4.78v13.66a27.94,27.94,0,0,1-5.16.39,27.79,27.79,0,0,1-5.16-.39v-44a27.79,27.79,0,0,1,5.16-.39,27.94,27.94,0,0,1,5.16.39v12.31l-.07,4.77,3.22-.06H105Zm35.45,13.16h-5.09v13.79a28.39,28.39,0,0,1-5.16.39,27.74,27.74,0,0,1-5.15-.39V178.9l.45-.45c3.74-.08,6.84-.15,9.31-.19s4.36-.07,5.64-.07a20.69,20.69,0,0,1,6.48,1,13.34,13.34,0,0,1,5,2.9,12.91,12.91,0,0,1,3.19,4.8,18.06,18.06,0,0,1,1.13,6.61,17.57,17.57,0,0,1-1.16,6.61,13.35,13.35,0,0,1-3.22,4.8,13.68,13.68,0,0,1-5,2.94A20,20,0,0,1,143.63,208.82Zm-5.09-22.76v15l2.87-.1,1.39,0a6.16,6.16,0,0,0,2.9-.61,5.43,5.43,0,0,0,1.87-1.61,6.85,6.85,0,0,0,1-2.36,12.4,12.4,0,0,0,.32-2.83,12.13,12.13,0,0,0-.32-2.77,7.58,7.58,0,0,0-1-2.39,4.89,4.89,0,0,0-1.77-1.64,5.19,5.19,0,0,0-2.58-.62H140.6Zm31.33,32.3-7.6-39.2a16,16,0,0,1,5.48-1.16,5.51,5.51,0,0,1,3.93,1.19q1.23,1.2,1.74,4.48l2.71,16.64c.81,5,1.33,8.46,1.54,10.44a27.23,27.23,0,0,0,.42,3.1.55.55,0,0,0,.42.12l5.35-34.55a37.88,37.88,0,0,1,6.64-.45,36.74,36.74,0,0,1,6.58.45l4.9,33.72a1.15,1.15,0,0,0,.23.71.77.77,0,0,0,.48.12q.59-6.06,1.93-13.73l3.61-21.66a21.37,21.37,0,0,1,4.32-.39,17.6,17.6,0,0,1,5.23.71l.45.58-8.51,43.07a74.06,74.06,0,0,1-7.87.45,11,11,0,0,1-5.22-.9c-1-.6-1.7-1.85-2-3.74l-2.19-14q-1.17-7.6-1.87-15h-.45c-.48,4.17-1.18,9.16-2.13,15l-2.9,18.18a78.59,78.59,0,0,1-8,.45,10.77,10.77,0,0,1-5.13-.9c-1-.6-1.74-1.85-2.13-3.74Zm83,1.42a13.28,13.28,0,0,1-5.41,2.45,33.42,33.42,0,0,1-7.42.77c-1.33,0-3.25,0-5.77-.06l-9.44-.2-.45-.45V178.9l.45-.45c2.49-.08,5.08-.15,7.77-.19s5.51-.07,8.47-.07a21.35,21.35,0,0,1,9.16,1.74,15,15,0,0,1,5.86,4.77,18.83,18.83,0,0,1,3.1,7.13,40.93,40.93,0,0,1,.9,8.8,37.23,37.23,0,0,1-1.48,11.15A16.13,16.13,0,0,1,252.91,219.78Zm-11.86-4.84q8.5,0,8.51-14.31t-8.51-14.38h-3.64l-2.74-.06V215c.77,0,1.68-.07,2.74-.07Z" transform="translate(-5 -22)"/>
  </g>
  <g id="SvgjsG4330">
    <path class="cls-1" d="M14,247.78,10.8,258.66H8.9L5,245.34H6.88L9.82,256h0L13,245.34h2.07L18.21,256h0l2.93-10.65h1.88l-3.87,13.32h-1.9l-3.24-10.88Zm31.41-2.44V247H38.63v4H45v1.7H38.63V257h7.13v1.69H36.82V245.34Zm19.63,0a4.35,4.35,0,0,1,2.89.9A3,3,0,0,1,69,248.67a2.93,2.93,0,0,1-2.3,2.93v0h0a3.08,3.08,0,0,1,2.08,1.08A3.39,3.39,0,0,1,69.6,255a3.27,3.27,0,0,1-1.29,2.7,5.25,5.25,0,0,1-3.32,1H60.34V245.34Zm-.38,5.53a2.77,2.77,0,0,0,1.78-.52,1.77,1.77,0,0,0,.65-1.47,1.84,1.84,0,0,0-.57-1.43,2,2,0,0,0-1.48-.53h-2.9v4Zm.21,6.21a3.14,3.14,0,0,0,2.07-.62,2,2,0,0,0,.73-1.64,2.18,2.18,0,0,0-.74-1.75,3.23,3.23,0,0,0-2.1-.62H62.15v4.63Zm41-11.74a7.45,7.45,0,0,1,3.68.87,6,6,0,0,1,2.39,2.4,6.92,6.92,0,0,1,.83,3.39,6.54,6.54,0,0,1-.92,3.4,6.37,6.37,0,0,1-2.58,2.4,7.9,7.9,0,0,1-3.69.86h-4.46V245.34ZM105.35,257a6.48,6.48,0,0,0,2.8-.6,4.84,4.84,0,0,0,2-1.7,5.28,5.28,0,0,0-.66-6.28,5.09,5.09,0,0,0-3.72-1.36H103V257ZM136,245.34V247h-6.79v4h6.32v1.7h-6.32V257h7.13v1.69h-8.94V245.34Zm15.19,0,3.91,10.84h0l4.06-10.84h2L156,258.66h-1.69l-5.14-13.32Zm46.16,2.6v4.29h4.29v1.46h-4.29V258h-1.47v-4.29h-4.29v-1.46h4.29v-4.29ZM237.73,245a4.68,4.68,0,0,1,3.84,1.52l-1.47,1.34a2.57,2.57,0,0,0-1-.85,3.11,3.11,0,0,0-1.43-.32,2.83,2.83,0,0,0-1.87.58,1.81,1.81,0,0,0-.71,1.47c0,1,.67,1.71,2,2.11l1.67.55a4.91,4.91,0,0,1,2.16,1.26,3.18,3.18,0,0,1,.74,2.22,3.77,3.77,0,0,1-1.31,3,4.87,4.87,0,0,1-3.32,1.14,4.94,4.94,0,0,1-4.25-1.84l1.48-1.28a3,3,0,0,0,1.19,1.05,3.63,3.63,0,0,0,1.64.38,2.89,2.89,0,0,0,1.88-.64,2,2,0,0,0,.77-1.58,1.59,1.59,0,0,0-.47-1.17,4.22,4.22,0,0,0-1.69-.85l-1.19-.39a5.16,5.16,0,0,1-2.5-1.54,3.81,3.81,0,0,1-.72-2.4,3.38,3.38,0,0,1,1.26-2.65,4.79,4.79,0,0,1,3.26-1.09Zm23.45.34a4.51,4.51,0,0,1,3.05,1,3.43,3.43,0,0,1,1.12,2.76,3.48,3.48,0,0,1-1.11,2.74,4.43,4.43,0,0,1-3.06,1h-3v5.87h-1.8V245.34Zm-.53,5.87a3.46,3.46,0,0,0,2.1-.52,1.92,1.92,0,0,0,.68-1.63c0-1.43-.92-2.14-2.78-2.14H258.2v4.29Zm27.53-5.87V247h-6.79v4h6.32v1.7h-6.32V257h7.13v1.69h-8.94V245.34Zm23.52,0V247h-6.79v4h6.32v1.7h-6.32V257H312v1.69H303.1V245.34Zm19.36,0a7.46,7.46,0,0,1,3.69.87,6.06,6.06,0,0,1,2.39,2.4A7,7,0,0,1,338,252a6.4,6.4,0,0,1-3.5,5.8,8,8,0,0,1-3.69.86h-4.46V245.34ZM330.5,257a6.44,6.44,0,0,0,2.79-.6,4.8,4.8,0,0,0,2-1.7,4.73,4.73,0,0,0,.74-2.67,4.79,4.79,0,0,0-1.4-3.61,5.12,5.12,0,0,0-3.72-1.36h-2.8V257Z" transform="translate(-5 -22)"/>
  </g>
</svg>
